<?xml version="1.0" encoding="utf-8"?>
<svg version="1.1" xmlns:xlink="http://www.w3.org/1999/xlink" width="8px" height="6px" xmlns="http://www.w3.org/2000/svg">
  <defs>
    <pattern id="BGPattern" patternUnits="userSpaceOnUse" alignment="0 0" imageRepeat="None" />
    <mask fill="white" id="Clip2">
      <path d="M 7.39892705882353 0.15113513513513605  L 2.720652549019608 4.997837837837838  L 0.6023780392156861 2.8080000000000007  C 0.5153781960784312 2.718050594594595  0.41163294117647053 2.6903818378378386  0.2911623529411763 2.7249729729729735  C 0.1706917647058821 2.7595641081081084  0.09539764705882336 2.837401945945946  0.06527999999999995 2.9584864864864873  C 0.035162352941176526 3.079571027027028  0.06361349019607838 3.1885440000000007  0.15061333333333335 3.2854054054054065  L 2.7206525490196083 5.942270270270271  L 7.860730980392157 0.6285405405405413  C 7.920966274509804 0.5593478918918928  7.949417411764706 0.4797872432432442  7.94606431372549 0.38983783783783865  C 7.942721254901961 0.29988843243243324  7.909260549019608 0.2220505945945953  7.8456721568627446 0.15632432432432525  C 7.782093803921568 0.09059805405405494  7.708476235294118 0.05772972972973057  7.624809411764706 0.05772972972973057  C 7.5411526274509795 0.05772972972973057  7.465858509803922 0.08886486486486574  7.39892705882353 0.15113513513513605  Z " fill-rule="evenodd" />
    </mask>
  </defs>
  <g transform="matrix(1 0 0 1 -3 -5 )">
    <path d="M 7.39892705882353 0.15113513513513605  L 2.720652549019608 4.997837837837838  L 0.6023780392156861 2.8080000000000007  C 0.5153781960784312 2.718050594594595  0.41163294117647053 2.6903818378378386  0.2911623529411763 2.7249729729729735  C 0.1706917647058821 2.7595641081081084  0.09539764705882336 2.837401945945946  0.06527999999999995 2.9584864864864873  C 0.035162352941176526 3.079571027027028  0.06361349019607838 3.1885440000000007  0.15061333333333335 3.2854054054054065  L 2.7206525490196083 5.942270270270271  L 7.860730980392157 0.6285405405405413  C 7.920966274509804 0.5593478918918928  7.949417411764706 0.4797872432432442  7.94606431372549 0.38983783783783865  C 7.942721254901961 0.29988843243243324  7.909260549019608 0.2220505945945953  7.8456721568627446 0.15632432432432525  C 7.782093803921568 0.09059805405405494  7.708476235294118 0.05772972972973057  7.624809411764706 0.05772972972973057  C 7.5411526274509795 0.05772972972973057  7.465858509803922 0.08886486486486574  7.39892705882353 0.15113513513513605  Z " fill-rule="nonzero" fill="rgba(255, 255, 255, 1)" stroke="none" transform="matrix(1 0 0 1 3 5 )" class="fill" />
    <path d="M 7.39892705882353 0.15113513513513605  L 2.720652549019608 4.997837837837838  L 0.6023780392156861 2.8080000000000007  C 0.5153781960784312 2.718050594594595  0.41163294117647053 2.6903818378378386  0.2911623529411763 2.7249729729729735  C 0.1706917647058821 2.7595641081081084  0.09539764705882336 2.837401945945946  0.06527999999999995 2.9584864864864873  C 0.035162352941176526 3.079571027027028  0.06361349019607838 3.1885440000000007  0.15061333333333335 3.2854054054054065  L 2.7206525490196083 5.942270270270271  L 7.860730980392157 0.6285405405405413  C 7.920966274509804 0.5593478918918928  7.949417411764706 0.4797872432432442  7.94606431372549 0.38983783783783865  C 7.942721254901961 0.29988843243243324  7.909260549019608 0.2220505945945953  7.8456721568627446 0.15632432432432525  C 7.782093803921568 0.09059805405405494  7.708476235294118 0.05772972972973057  7.624809411764706 0.05772972972973057  C 7.5411526274509795 0.05772972972973057  7.465858509803922 0.08886486486486574  7.39892705882353 0.15113513513513605  Z " stroke-width="0" stroke-dasharray="0" stroke="rgba(255, 255, 255, 0)" fill="none" transform="matrix(1 0 0 1 3 5 )" class="stroke" mask="url(#Clip2)" />
  </g>
</svg>