<?xml version="1.0" encoding="utf-8"?>
<svg version="1.1" xmlns:xlink="http://www.w3.org/1999/xlink" width="30px" height="30px" xmlns="http://www.w3.org/2000/svg">
  <defs>
    <pattern id="BGPattern" patternUnits="userSpaceOnUse" alignment="0 0" imageRepeat="None" />
    <mask fill="white" id="Clip1">
      <path d="M 30 19.953658536585365  C 29.963414634146343 18.78292682926829  28.902439024390247 17.57560975609756  27.768292682926827 17.61219512195122  C 27.695121951219512 17.61219512195122  19.536585365853657 4.185365853658536  19.536585365853657 4.185365853658536  C 20.01219512195122 3.782926829268293  20.158536585365855 3.3439024390243905  20.158536585365855 2.6853658536585363  C 20.158536585365855 1.4414634146341463  19.170731707317074 0.41707317073170735  17.926829268292682 0.3804878048780488  C 15.512195121951219 0.3439024390243902  15.439024390243903 2.868292682926829  15.512195121951219 2.978048780487805  L 6.365853658536586 6.380487804878049  C 5.963414634146342 5.795121951219512  5.378048780487805 5.575609756097561  4.646341463414634 5.575609756097561  C 3.3658536585365857 5.575609756097561  2.341463414634146 6.6000000000000005  2.341463414634146 7.880487804878049  C 2.341463414634146 8.904878048780487  2.8902439024390243 9.782926829268291  3.8048780487804876 10.07560975609756  L 1.719512195121951 18.85609756097561  C 0.6951219512195121 19.07560975609756  0.036585365853658534 19.990243902439023  0.036585365853658534 21.08780487804878  C 0.036585365853658534 22.36829268292683  1.0609756097560974 23.39268292682927  2.341463414634146 23.39268292682927  C 3.0365853658536586 23.39268292682927  3.6585365853658534 23.1  4.134146341463414 22.58780487804878  L 12.695121951219512 27.343902439024387  L 12.695121951219512 27.41707317073171  C 12.695121951219512 28.697560975609758  13.719512195121952 29.721951219512192  15 29.721951219512192  C 16.390243902439025 29.721951219512192  17.30487804878049 28.478048780487804  17.158536585365855 27.270731707317072  L 26.26829268292683 21.929268292682927  C 26.670731707317074 22.221951219512196  27.18292682926829 22.258536585365853  27.695121951219512 22.258536585365853  C 28.975609756097562 22.258536585365853  30 21.234146341463415  30 19.953658536585365  Z M 16.646341463414636 2.612195121951219  C 16.646341463414636 2.026829268292683  17.158536585365855 1.4780487804878049  17.78048780487805 1.4780487804878049  C 18.402439024390244 1.4780487804878049  18.914634146341463 1.9902439024390244  18.914634146341463 2.612195121951219  C 18.914634146341463 3.234146341463415  18.402439024390244 3.746341463414634  17.78048780487805 3.746341463414634  C 17.158536585365855 3.746341463414634  16.646341463414636 3.234146341463415  16.646341463414636 2.612195121951219  Z M 17.158536585365855 4.84390243902439  L 15.987804878048781 13.404878048780489  L 11.817073170731708 10.990243902439024  L 17.158536585365855 4.84390243902439  C 17.231707317073173 4.84390243902439  17.048780487804876 4.84390243902439  17.158536585365855 4.84390243902439  Z M 16.463414634146343 19.514634146341464  L 16.97560975609756 15.234146341463415  L 24.073170731707314 19.221951219512196  L 16.463414634146343 19.514634146341464  Z M 11.121951219512194 11.941463414634146  L 15.731707317073171 14.61219512195122  L 15.21951219512195 19.697560975609754  L 11.52439024390244 19.88048780487805  L 8.963414634146341 14.57560975609756  L 11.121951219512194 11.941463414634146  Z M 6.731707317073171 7.404878048780487  L 15.951219512195124 4.0390243902439025  C 16.024390243902438 4.148780487804878  16.134146341463417 4.221951219512195  16.170731707317074 4.33170731707317  L 10.902439024390244 10.441463414634146  L 6.804878048780488 8.100000000000001  C 6.804878048780488 7.990243902439024  6.804878048780488 7.880487804878049  6.804878048780488 7.807317073170732  C 6.804878048780488 7.697560975609756  6.804878048780488 7.514634146341463  6.731707317073171 7.404878048780487  Z M 6.402439024390245 9.160975609756097  L 6.475609756097562 9.08780487804878  L 10.243902439024389 11.209756097560975  L 8.341463414634145 13.404878048780489  L 6.402439024390245 9.160975609756097  Z M 4.536585365853658 8.941463414634146  C 3.914634146341464 8.941463414634146  3.402439024390244 8.465853658536584  3.402439024390244 7.807317073170732  C 3.402439024390244 7.185365853658537  3.914634146341464 6.673170731707318  4.536585365853658 6.673170731707318  C 5.158536585365853 6.673170731707318  5.670731707317073 7.185365853658537  5.670731707317073 7.807317073170732  C 5.670731707317073 8.429268292682925  5.158536585365853 8.941463414634146  4.536585365853658 8.941463414634146  Z M 3.402439024390244 21.05121951219512  C 3.402439024390244 21.673170731707316  2.8902439024390243 22.185365853658535  2.268292682926829 22.185365853658535  C 1.6463414634146343 22.185365853658535  1.1341463414634145 21.673170731707316  1.1341463414634145 21.05121951219512  C 1.1341463414634145 20.429268292682924  1.6463414634146343 19.917073170731705  2.268292682926829 19.917073170731705  C 2.8902439024390243 19.917073170731705  3.402439024390244 20.429268292682924  3.402439024390244 21.05121951219512  Z M 7.609756097560975 14.35609756097561  L 3.548780487804878 19.07560975609756  C 3.3658536585365857 18.965853658536584  3.2195121951219514 18.89268292682927  2.9634146341463414 18.78292682926829  L 5.048780487804877 10.002439024390243  C 5.2317073170731705 9.929268292682925  5.341463414634146 10.002439024390243  5.524390243902439 9.929268292682925  L 7.609756097560975 14.35609756097561  Z M 4.390243902439024 20.28292682926829  C 4.280487804878049 20.06341463414634  4.390243902439024 20.06341463414634  4.280487804878049 19.88048780487805  L 8.048780487804878 15.38048780487805  L 10.134146341463413 20.026829268292683  L 4.390243902439024 20.28292682926829  Z M 12.878048780487806 25.91707317073171  C 12.841463414634147 26.026829268292683  12.951219512195124 25.91707317073171  12.914634146341463 26.06341463414634  L 4.719512195121951 21.526829268292683  L 10.682926829268292 21.197560975609754  L 12.878048780487806 25.91707317073171  Z M 13.902439024390244 25.25853658536585  L 11.963414634146343 21.160975609756097  L 15 20.978048780487807  L 14.487804878048781 25.075609756097563  C 14.268292682926829 25.148780487804878  14.085365853658537 25.185365853658535  13.902439024390244 25.25853658536585  Z M 16.0609756097561 27.380487804878044  C 16.0609756097561 28.00243902439025  15.548780487804878 28.51463414634146  14.926829268292682 28.51463414634146  C 14.30487804878049 28.51463414634146  13.792682926829269 28.00243902439025  13.792682926829269 27.380487804878044  C 13.792682926829269 26.75853658536585  14.30487804878049 26.246341463414637  14.926829268292682 26.246341463414637  C 15.548780487804878 26.246341463414637  16.0609756097561 26.75853658536585  16.0609756097561 27.380487804878044  Z M 25.5 21.01463414634146  L 16.79268292682927 26.099999999999998  C 16.5 25.697560975609758  16.097560975609756 25.368292682926832  15.585365853658537 25.185365853658535  L 16.170731707317074 20.978048780487807  L 25.31707317073171 20.50243902439024  C 25.390243902439025 20.68536585365854  25.426829268292686 20.83170731707317  25.5 21.01463414634146  Z M 26.378048780487806 17.86829268292683  C 26.04878048780488 18.05121951219512  25.719512195121947 18.380487804878047  25.536585365853657 18.78292682926829  L 17.085365853658537 13.953658536585367  L 18.29268292682927 4.880487804878049  C 18.365853658536587 4.880487804878049  18.402439024390244 4.880487804878049  18.402439024390244 4.807317073170732  L 26.378048780487806 17.86829268292683  Z M 28.68292682926829 19.917073170731705  C 28.71951219512195 20.50243902439024  28.20731707317073 21.05121951219512  27.54878048780488 21.05121951219512  C 26.926829268292686 21.05121951219512  26.414634146341463 20.539024390243902  26.414634146341463 19.917073170731705  C 26.414634146341463 19.295121951219514  26.926829268292686 18.78292682926829  27.54878048780488 18.78292682926829  C 28.170731707317074 18.78292682926829  28.68292682926829 19.295121951219514  28.68292682926829 19.917073170731705  Z " fill-rule="evenodd" />
    </mask>
  </defs>
  <g transform="matrix(1 0 0 1 -8 -10 )">
    <path d="M 30 19.953658536585365  C 29.963414634146343 18.78292682926829  28.902439024390247 17.57560975609756  27.768292682926827 17.61219512195122  C 27.695121951219512 17.61219512195122  19.536585365853657 4.185365853658536  19.536585365853657 4.185365853658536  C 20.01219512195122 3.782926829268293  20.158536585365855 3.3439024390243905  20.158536585365855 2.6853658536585363  C 20.158536585365855 1.4414634146341463  19.170731707317074 0.41707317073170735  17.926829268292682 0.3804878048780488  C 15.512195121951219 0.3439024390243902  15.439024390243903 2.868292682926829  15.512195121951219 2.978048780487805  L 6.365853658536586 6.380487804878049  C 5.963414634146342 5.795121951219512  5.378048780487805 5.575609756097561  4.646341463414634 5.575609756097561  C 3.3658536585365857 5.575609756097561  2.341463414634146 6.6000000000000005  2.341463414634146 7.880487804878049  C 2.341463414634146 8.904878048780487  2.8902439024390243 9.782926829268291  3.8048780487804876 10.07560975609756  L 1.719512195121951 18.85609756097561  C 0.6951219512195121 19.07560975609756  0.036585365853658534 19.990243902439023  0.036585365853658534 21.08780487804878  C 0.036585365853658534 22.36829268292683  1.0609756097560974 23.39268292682927  2.341463414634146 23.39268292682927  C 3.0365853658536586 23.39268292682927  3.6585365853658534 23.1  4.134146341463414 22.58780487804878  L 12.695121951219512 27.343902439024387  L 12.695121951219512 27.41707317073171  C 12.695121951219512 28.697560975609758  13.719512195121952 29.721951219512192  15 29.721951219512192  C 16.390243902439025 29.721951219512192  17.30487804878049 28.478048780487804  17.158536585365855 27.270731707317072  L 26.26829268292683 21.929268292682927  C 26.670731707317074 22.221951219512196  27.18292682926829 22.258536585365853  27.695121951219512 22.258536585365853  C 28.975609756097562 22.258536585365853  30 21.234146341463415  30 19.953658536585365  Z M 16.646341463414636 2.612195121951219  C 16.646341463414636 2.026829268292683  17.158536585365855 1.4780487804878049  17.78048780487805 1.4780487804878049  C 18.402439024390244 1.4780487804878049  18.914634146341463 1.9902439024390244  18.914634146341463 2.612195121951219  C 18.914634146341463 3.234146341463415  18.402439024390244 3.746341463414634  17.78048780487805 3.746341463414634  C 17.158536585365855 3.746341463414634  16.646341463414636 3.234146341463415  16.646341463414636 2.612195121951219  Z M 17.158536585365855 4.84390243902439  L 15.987804878048781 13.404878048780489  L 11.817073170731708 10.990243902439024  L 17.158536585365855 4.84390243902439  C 17.231707317073173 4.84390243902439  17.048780487804876 4.84390243902439  17.158536585365855 4.84390243902439  Z M 16.463414634146343 19.514634146341464  L 16.97560975609756 15.234146341463415  L 24.073170731707314 19.221951219512196  L 16.463414634146343 19.514634146341464  Z M 11.121951219512194 11.941463414634146  L 15.731707317073171 14.61219512195122  L 15.21951219512195 19.697560975609754  L 11.52439024390244 19.88048780487805  L 8.963414634146341 14.57560975609756  L 11.121951219512194 11.941463414634146  Z M 6.731707317073171 7.404878048780487  L 15.951219512195124 4.0390243902439025  C 16.024390243902438 4.148780487804878  16.134146341463417 4.221951219512195  16.170731707317074 4.33170731707317  L 10.902439024390244 10.441463414634146  L 6.804878048780488 8.100000000000001  C 6.804878048780488 7.990243902439024  6.804878048780488 7.880487804878049  6.804878048780488 7.807317073170732  C 6.804878048780488 7.697560975609756  6.804878048780488 7.514634146341463  6.731707317073171 7.404878048780487  Z M 6.402439024390245 9.160975609756097  L 6.475609756097562 9.08780487804878  L 10.243902439024389 11.209756097560975  L 8.341463414634145 13.404878048780489  L 6.402439024390245 9.160975609756097  Z M 4.536585365853658 8.941463414634146  C 3.914634146341464 8.941463414634146  3.402439024390244 8.465853658536584  3.402439024390244 7.807317073170732  C 3.402439024390244 7.185365853658537  3.914634146341464 6.673170731707318  4.536585365853658 6.673170731707318  C 5.158536585365853 6.673170731707318  5.670731707317073 7.185365853658537  5.670731707317073 7.807317073170732  C 5.670731707317073 8.429268292682925  5.158536585365853 8.941463414634146  4.536585365853658 8.941463414634146  Z M 3.402439024390244 21.05121951219512  C 3.402439024390244 21.673170731707316  2.8902439024390243 22.185365853658535  2.268292682926829 22.185365853658535  C 1.6463414634146343 22.185365853658535  1.1341463414634145 21.673170731707316  1.1341463414634145 21.05121951219512  C 1.1341463414634145 20.429268292682924  1.6463414634146343 19.917073170731705  2.268292682926829 19.917073170731705  C 2.8902439024390243 19.917073170731705  3.402439024390244 20.429268292682924  3.402439024390244 21.05121951219512  Z M 7.609756097560975 14.35609756097561  L 3.548780487804878 19.07560975609756  C 3.3658536585365857 18.965853658536584  3.2195121951219514 18.89268292682927  2.9634146341463414 18.78292682926829  L 5.048780487804877 10.002439024390243  C 5.2317073170731705 9.929268292682925  5.341463414634146 10.002439024390243  5.524390243902439 9.929268292682925  L 7.609756097560975 14.35609756097561  Z M 4.390243902439024 20.28292682926829  C 4.280487804878049 20.06341463414634  4.390243902439024 20.06341463414634  4.280487804878049 19.88048780487805  L 8.048780487804878 15.38048780487805  L 10.134146341463413 20.026829268292683  L 4.390243902439024 20.28292682926829  Z M 12.878048780487806 25.91707317073171  C 12.841463414634147 26.026829268292683  12.951219512195124 25.91707317073171  12.914634146341463 26.06341463414634  L 4.719512195121951 21.526829268292683  L 10.682926829268292 21.197560975609754  L 12.878048780487806 25.91707317073171  Z M 13.902439024390244 25.25853658536585  L 11.963414634146343 21.160975609756097  L 15 20.978048780487807  L 14.487804878048781 25.075609756097563  C 14.268292682926829 25.148780487804878  14.085365853658537 25.185365853658535  13.902439024390244 25.25853658536585  Z M 16.0609756097561 27.380487804878044  C 16.0609756097561 28.00243902439025  15.548780487804878 28.51463414634146  14.926829268292682 28.51463414634146  C 14.30487804878049 28.51463414634146  13.792682926829269 28.00243902439025  13.792682926829269 27.380487804878044  C 13.792682926829269 26.75853658536585  14.30487804878049 26.246341463414637  14.926829268292682 26.246341463414637  C 15.548780487804878 26.246341463414637  16.0609756097561 26.75853658536585  16.0609756097561 27.380487804878044  Z M 25.5 21.01463414634146  L 16.79268292682927 26.099999999999998  C 16.5 25.697560975609758  16.097560975609756 25.368292682926832  15.585365853658537 25.185365853658535  L 16.170731707317074 20.978048780487807  L 25.31707317073171 20.50243902439024  C 25.390243902439025 20.68536585365854  25.426829268292686 20.83170731707317  25.5 21.01463414634146  Z M 26.378048780487806 17.86829268292683  C 26.04878048780488 18.05121951219512  25.719512195121947 18.380487804878047  25.536585365853657 18.78292682926829  L 17.085365853658537 13.953658536585367  L 18.29268292682927 4.880487804878049  C 18.365853658536587 4.880487804878049  18.402439024390244 4.880487804878049  18.402439024390244 4.807317073170732  L 26.378048780487806 17.86829268292683  Z M 28.68292682926829 19.917073170731705  C 28.71951219512195 20.50243902439024  28.20731707317073 21.05121951219512  27.54878048780488 21.05121951219512  C 26.926829268292686 21.05121951219512  26.414634146341463 20.539024390243902  26.414634146341463 19.917073170731705  C 26.414634146341463 19.295121951219514  26.926829268292686 18.78292682926829  27.54878048780488 18.78292682926829  C 28.170731707317074 18.78292682926829  28.68292682926829 19.295121951219514  28.68292682926829 19.917073170731705  Z " fill-rule="nonzero" fill="rgba(153, 153, 153, 1)" stroke="none" transform="matrix(1 0 0 1 8 10 )" class="fill" />
    <path d="M 30 19.953658536585365  C 29.963414634146343 18.78292682926829  28.902439024390247 17.57560975609756  27.768292682926827 17.61219512195122  C 27.695121951219512 17.61219512195122  19.536585365853657 4.185365853658536  19.536585365853657 4.185365853658536  C 20.01219512195122 3.782926829268293  20.158536585365855 3.3439024390243905  20.158536585365855 2.6853658536585363  C 20.158536585365855 1.4414634146341463  19.170731707317074 0.41707317073170735  17.926829268292682 0.3804878048780488  C 15.512195121951219 0.3439024390243902  15.439024390243903 2.868292682926829  15.512195121951219 2.978048780487805  L 6.365853658536586 6.380487804878049  C 5.963414634146342 5.795121951219512  5.378048780487805 5.575609756097561  4.646341463414634 5.575609756097561  C 3.3658536585365857 5.575609756097561  2.341463414634146 6.6000000000000005  2.341463414634146 7.880487804878049  C 2.341463414634146 8.904878048780487  2.8902439024390243 9.782926829268291  3.8048780487804876 10.07560975609756  L 1.719512195121951 18.85609756097561  C 0.6951219512195121 19.07560975609756  0.036585365853658534 19.990243902439023  0.036585365853658534 21.08780487804878  C 0.036585365853658534 22.36829268292683  1.0609756097560974 23.39268292682927  2.341463414634146 23.39268292682927  C 3.0365853658536586 23.39268292682927  3.6585365853658534 23.1  4.134146341463414 22.58780487804878  L 12.695121951219512 27.343902439024387  L 12.695121951219512 27.41707317073171  C 12.695121951219512 28.697560975609758  13.719512195121952 29.721951219512192  15 29.721951219512192  C 16.390243902439025 29.721951219512192  17.30487804878049 28.478048780487804  17.158536585365855 27.270731707317072  L 26.26829268292683 21.929268292682927  C 26.670731707317074 22.221951219512196  27.18292682926829 22.258536585365853  27.695121951219512 22.258536585365853  C 28.975609756097562 22.258536585365853  30 21.234146341463415  30 19.953658536585365  Z " stroke-width="0" stroke-dasharray="0" stroke="rgba(255, 255, 255, 0)" fill="none" transform="matrix(1 0 0 1 8 10 )" class="stroke" mask="url(#Clip1)" />
    <path d="M 16.646341463414636 2.612195121951219  C 16.646341463414636 2.026829268292683  17.158536585365855 1.4780487804878049  17.78048780487805 1.4780487804878049  C 18.402439024390244 1.4780487804878049  18.914634146341463 1.9902439024390244  18.914634146341463 2.612195121951219  C 18.914634146341463 3.234146341463415  18.402439024390244 3.746341463414634  17.78048780487805 3.746341463414634  C 17.158536585365855 3.746341463414634  16.646341463414636 3.234146341463415  16.646341463414636 2.612195121951219  Z " stroke-width="0" stroke-dasharray="0" stroke="rgba(255, 255, 255, 0)" fill="none" transform="matrix(1 0 0 1 8 10 )" class="stroke" mask="url(#Clip1)" />
    <path d="M 17.158536585365855 4.84390243902439  L 15.987804878048781 13.404878048780489  L 11.817073170731708 10.990243902439024  L 17.158536585365855 4.84390243902439  C 17.231707317073173 4.84390243902439  17.048780487804876 4.84390243902439  17.158536585365855 4.84390243902439  Z " stroke-width="0" stroke-dasharray="0" stroke="rgba(255, 255, 255, 0)" fill="none" transform="matrix(1 0 0 1 8 10 )" class="stroke" mask="url(#Clip1)" />
    <path d="M 16.463414634146343 19.514634146341464  L 16.97560975609756 15.234146341463415  L 24.073170731707314 19.221951219512196  L 16.463414634146343 19.514634146341464  Z " stroke-width="0" stroke-dasharray="0" stroke="rgba(255, 255, 255, 0)" fill="none" transform="matrix(1 0 0 1 8 10 )" class="stroke" mask="url(#Clip1)" />
    <path d="M 11.121951219512194 11.941463414634146  L 15.731707317073171 14.61219512195122  L 15.21951219512195 19.697560975609754  L 11.52439024390244 19.88048780487805  L 8.963414634146341 14.57560975609756  L 11.121951219512194 11.941463414634146  Z " stroke-width="0" stroke-dasharray="0" stroke="rgba(255, 255, 255, 0)" fill="none" transform="matrix(1 0 0 1 8 10 )" class="stroke" mask="url(#Clip1)" />
    <path d="M 6.731707317073171 7.404878048780487  L 15.951219512195124 4.0390243902439025  C 16.024390243902438 4.148780487804878  16.134146341463417 4.221951219512195  16.170731707317074 4.33170731707317  L 10.902439024390244 10.441463414634146  L 6.804878048780488 8.100000000000001  C 6.804878048780488 7.990243902439024  6.804878048780488 7.880487804878049  6.804878048780488 7.807317073170732  C 6.804878048780488 7.697560975609756  6.804878048780488 7.514634146341463  6.731707317073171 7.404878048780487  Z " stroke-width="0" stroke-dasharray="0" stroke="rgba(255, 255, 255, 0)" fill="none" transform="matrix(1 0 0 1 8 10 )" class="stroke" mask="url(#Clip1)" />
    <path d="M 6.402439024390245 9.160975609756097  L 6.475609756097562 9.08780487804878  L 10.243902439024389 11.209756097560975  L 8.341463414634145 13.404878048780489  L 6.402439024390245 9.160975609756097  Z " stroke-width="0" stroke-dasharray="0" stroke="rgba(255, 255, 255, 0)" fill="none" transform="matrix(1 0 0 1 8 10 )" class="stroke" mask="url(#Clip1)" />
    <path d="M 4.536585365853658 8.941463414634146  C 3.914634146341464 8.941463414634146  3.402439024390244 8.465853658536584  3.402439024390244 7.807317073170732  C 3.402439024390244 7.185365853658537  3.914634146341464 6.673170731707318  4.536585365853658 6.673170731707318  C 5.158536585365853 6.673170731707318  5.670731707317073 7.185365853658537  5.670731707317073 7.807317073170732  C 5.670731707317073 8.429268292682925  5.158536585365853 8.941463414634146  4.536585365853658 8.941463414634146  Z " stroke-width="0" stroke-dasharray="0" stroke="rgba(255, 255, 255, 0)" fill="none" transform="matrix(1 0 0 1 8 10 )" class="stroke" mask="url(#Clip1)" />
    <path d="M 3.402439024390244 21.05121951219512  C 3.402439024390244 21.673170731707316  2.8902439024390243 22.185365853658535  2.268292682926829 22.185365853658535  C 1.6463414634146343 22.185365853658535  1.1341463414634145 21.673170731707316  1.1341463414634145 21.05121951219512  C 1.1341463414634145 20.429268292682924  1.6463414634146343 19.917073170731705  2.268292682926829 19.917073170731705  C 2.8902439024390243 19.917073170731705  3.402439024390244 20.429268292682924  3.402439024390244 21.05121951219512  Z " stroke-width="0" stroke-dasharray="0" stroke="rgba(255, 255, 255, 0)" fill="none" transform="matrix(1 0 0 1 8 10 )" class="stroke" mask="url(#Clip1)" />
    <path d="M 7.609756097560975 14.35609756097561  L 3.548780487804878 19.07560975609756  C 3.3658536585365857 18.965853658536584  3.2195121951219514 18.89268292682927  2.9634146341463414 18.78292682926829  L 5.048780487804877 10.002439024390243  C 5.2317073170731705 9.929268292682925  5.341463414634146 10.002439024390243  5.524390243902439 9.929268292682925  L 7.609756097560975 14.35609756097561  Z " stroke-width="0" stroke-dasharray="0" stroke="rgba(255, 255, 255, 0)" fill="none" transform="matrix(1 0 0 1 8 10 )" class="stroke" mask="url(#Clip1)" />
    <path d="M 4.390243902439024 20.28292682926829  C 4.280487804878049 20.06341463414634  4.390243902439024 20.06341463414634  4.280487804878049 19.88048780487805  L 8.048780487804878 15.38048780487805  L 10.134146341463413 20.026829268292683  L 4.390243902439024 20.28292682926829  Z " stroke-width="0" stroke-dasharray="0" stroke="rgba(255, 255, 255, 0)" fill="none" transform="matrix(1 0 0 1 8 10 )" class="stroke" mask="url(#Clip1)" />
    <path d="M 12.878048780487806 25.91707317073171  C 12.841463414634147 26.026829268292683  12.951219512195124 25.91707317073171  12.914634146341463 26.06341463414634  L 4.719512195121951 21.526829268292683  L 10.682926829268292 21.197560975609754  L 12.878048780487806 25.91707317073171  Z " stroke-width="0" stroke-dasharray="0" stroke="rgba(255, 255, 255, 0)" fill="none" transform="matrix(1 0 0 1 8 10 )" class="stroke" mask="url(#Clip1)" />
    <path d="M 13.902439024390244 25.25853658536585  L 11.963414634146343 21.160975609756097  L 15 20.978048780487807  L 14.487804878048781 25.075609756097563  C 14.268292682926829 25.148780487804878  14.085365853658537 25.185365853658535  13.902439024390244 25.25853658536585  Z " stroke-width="0" stroke-dasharray="0" stroke="rgba(255, 255, 255, 0)" fill="none" transform="matrix(1 0 0 1 8 10 )" class="stroke" mask="url(#Clip1)" />
    <path d="M 16.0609756097561 27.380487804878044  C 16.0609756097561 28.00243902439025  15.548780487804878 28.51463414634146  14.926829268292682 28.51463414634146  C 14.30487804878049 28.51463414634146  13.792682926829269 28.00243902439025  13.792682926829269 27.380487804878044  C 13.792682926829269 26.75853658536585  14.30487804878049 26.246341463414637  14.926829268292682 26.246341463414637  C 15.548780487804878 26.246341463414637  16.0609756097561 26.75853658536585  16.0609756097561 27.380487804878044  Z " stroke-width="0" stroke-dasharray="0" stroke="rgba(255, 255, 255, 0)" fill="none" transform="matrix(1 0 0 1 8 10 )" class="stroke" mask="url(#Clip1)" />
    <path d="M 25.5 21.01463414634146  L 16.79268292682927 26.099999999999998  C 16.5 25.697560975609758  16.097560975609756 25.368292682926832  15.585365853658537 25.185365853658535  L 16.170731707317074 20.978048780487807  L 25.31707317073171 20.50243902439024  C 25.390243902439025 20.68536585365854  25.426829268292686 20.83170731707317  25.5 21.01463414634146  Z " stroke-width="0" stroke-dasharray="0" stroke="rgba(255, 255, 255, 0)" fill="none" transform="matrix(1 0 0 1 8 10 )" class="stroke" mask="url(#Clip1)" />
    <path d="M 26.378048780487806 17.86829268292683  C 26.04878048780488 18.05121951219512  25.719512195121947 18.380487804878047  25.536585365853657 18.78292682926829  L 17.085365853658537 13.953658536585367  L 18.29268292682927 4.880487804878049  C 18.365853658536587 4.880487804878049  18.402439024390244 4.880487804878049  18.402439024390244 4.807317073170732  L 26.378048780487806 17.86829268292683  Z " stroke-width="0" stroke-dasharray="0" stroke="rgba(255, 255, 255, 0)" fill="none" transform="matrix(1 0 0 1 8 10 )" class="stroke" mask="url(#Clip1)" />
    <path d="M 28.68292682926829 19.917073170731705  C 28.71951219512195 20.50243902439024  28.20731707317073 21.05121951219512  27.54878048780488 21.05121951219512  C 26.926829268292686 21.05121951219512  26.414634146341463 20.539024390243902  26.414634146341463 19.917073170731705  C 26.414634146341463 19.295121951219514  26.926829268292686 18.78292682926829  27.54878048780488 18.78292682926829  C 28.170731707317074 18.78292682926829  28.68292682926829 19.295121951219514  28.68292682926829 19.917073170731705  Z " stroke-width="0" stroke-dasharray="0" stroke="rgba(255, 255, 255, 0)" fill="none" transform="matrix(1 0 0 1 8 10 )" class="stroke" mask="url(#Clip1)" />
  </g>
</svg>