<?xml version="1.0" encoding="utf-8"?>
<svg version="1.1" xmlns:xlink="http://www.w3.org/1999/xlink" width="8px" height="1px" xmlns="http://www.w3.org/2000/svg">
  <defs>
    <pattern id="BGPattern" patternUnits="userSpaceOnUse" alignment="0 0" imageRepeat="None" />
    <mask fill="white" id="Clip3">
      <path d="M 0.3076925277709961 1  C 0.13775876852182242 1  0 0.7761423587799072  0 0.5  C 0 0.22385764122009277  0.137758548443134 0  0.3076923076923077 0  C 0.3076923076923077 0  7.6923076923076925 0  7.6923076923076925 0  C 7.862241451556866 0  8 0.22385764122009277  8 0.5  C 8 0.7761423587799072  7.862241451556866 1  7.6923076923076925 1  C 7.6923076923076925 1  0.3076925277709961 1  0.3076925277709961 1  Z " fill-rule="evenodd" />
    </mask>
  </defs>
  <g transform="matrix(1 0 0 1 -3 -7 )">
    <path d="M 0.3076925277709961 1  C 0.13775876852182242 1  0 0.7761423587799072  0 0.5  C 0 0.22385764122009277  0.137758548443134 0  0.3076923076923077 0  C 0.3076923076923077 0  7.6923076923076925 0  7.6923076923076925 0  C 7.862241451556866 0  8 0.22385764122009277  8 0.5  C 8 0.7761423587799072  7.862241451556866 1  7.6923076923076925 1  C 7.6923076923076925 1  0.3076925277709961 1  0.3076925277709961 1  Z " fill-rule="nonzero" fill="rgba(255, 255, 255, 1)" stroke="none" transform="matrix(1 0 0 1 3 7 )" class="fill" />
    <path d="M 0.3076925277709961 1  C 0.13775876852182242 1  0 0.7761423587799072  0 0.5  C 0 0.22385764122009277  0.137758548443134 0  0.3076923076923077 0  C 0.3076923076923077 0  7.6923076923076925 0  7.6923076923076925 0  C 7.862241451556866 0  8 0.22385764122009277  8 0.5  C 8 0.7761423587799072  7.862241451556866 1  7.6923076923076925 1  C 7.6923076923076925 1  0.3076925277709961 1  0.3076925277709961 1  Z " stroke-width="0" stroke-dasharray="0" stroke="rgba(121, 121, 121, 1)" fill="none" transform="matrix(1 0 0 1 3 7 )" class="stroke" mask="url(#Clip3)" />
  </g>
</svg>