<?xml version="1.0" encoding="utf-8"?>
<svg version="1.1" xmlns:xlink="http://www.w3.org/1999/xlink" width="15px" height="16px" xmlns="http://www.w3.org/2000/svg">
  <defs>
    <pattern id="BGPattern" patternUnits="userSpaceOnUse" alignment="0 0" imageRepeat="None" />
    <mask fill="white" id="Clip4">
      <path d="M 0.5 6.125  C 0.5 3.0183982799999995  3.0183982799999853 0.5  6.125 0.5  C 9.231601699999999 0.5  11.75 3.0183982799999995  11.75 6.125  C 11.75 7.67830086  11.120400399999994 9.0845509  10.102475599999991 10.102475599999998  L 14.767766999999992 14.767767  L 13.883883500000024 15.651650400000001  L 9.119667499999991 10.887443699999999  C 8.252513000000022 11.4338658  7.225675039999999 11.75  6.125 11.75  C 3.0183982799999853 11.75  0.5 9.231601699999999  0.5 6.125  Z M 10.5 6.125  C 10.5 3.7087542199999994  8.541245800000013 1.75  6.125 1.75  C 3.708754220000003 1.75  1.75 3.7087542199999994  1.75 6.125  C 1.75 8.541245799999999  3.708754220000003 10.5  6.125 10.5  C 8.541245800000013 10.5  10.5 8.541245799999999  10.5 6.125  Z " fill-rule="evenodd" />
    </mask>
  </defs>
  <g transform="matrix(1 0 0 1 -842 -85 )">
    <path d="M 0.5 6.125  C 0.5 3.0183982799999995  3.0183982799999853 0.5  6.125 0.5  C 9.231601699999999 0.5  11.75 3.0183982799999995  11.75 6.125  C 11.75 7.67830086  11.120400399999994 9.0845509  10.102475599999991 10.102475599999998  L 14.767766999999992 14.767767  L 13.883883500000024 15.651650400000001  L 9.119667499999991 10.887443699999999  C 8.252513000000022 11.4338658  7.225675039999999 11.75  6.125 11.75  C 3.0183982799999853 11.75  0.5 9.231601699999999  0.5 6.125  Z M 10.5 6.125  C 10.5 3.7087542199999994  8.541245800000013 1.75  6.125 1.75  C 3.708754220000003 1.75  1.75 3.7087542199999994  1.75 6.125  C 1.75 8.541245799999999  3.708754220000003 10.5  6.125 10.5  C 8.541245800000013 10.5  10.5 8.541245799999999  10.5 6.125  Z " fill-rule="nonzero" fill="rgba(0, 0, 0, 0.1568627450980392)" stroke="none" transform="matrix(1 0 0 1 842 85 )" class="fill" />
    <path d="M 0.5 6.125  C 0.5 3.0183982799999995  3.0183982799999853 0.5  6.125 0.5  C 9.231601699999999 0.5  11.75 3.0183982799999995  11.75 6.125  C 11.75 7.67830086  11.120400399999994 9.0845509  10.102475599999991 10.102475599999998  L 14.767766999999992 14.767767  L 13.883883500000024 15.651650400000001  L 9.119667499999991 10.887443699999999  C 8.252513000000022 11.4338658  7.225675039999999 11.75  6.125 11.75  C 3.0183982799999853 11.75  0.5 9.231601699999999  0.5 6.125  Z " stroke-width="0" stroke-dasharray="0" stroke="rgba(255, 255, 255, 0)" fill="none" transform="matrix(1 0 0 1 842 85 )" class="stroke" mask="url(#Clip4)" />
    <path d="M 10.5 6.125  C 10.5 3.7087542199999994  8.541245800000013 1.75  6.125 1.75  C 3.708754220000003 1.75  1.75 3.7087542199999994  1.75 6.125  C 1.75 8.541245799999999  3.708754220000003 10.5  6.125 10.5  C 8.541245800000013 10.5  10.5 8.541245799999999  10.5 6.125  Z " stroke-width="0" stroke-dasharray="0" stroke="rgba(255, 255, 255, 0)" fill="none" transform="matrix(1 0 0 1 842 85 )" class="stroke" mask="url(#Clip4)" />
  </g>
</svg>